%FSLAX23Y23*%
%MOIN*%
G70*
G01*
G75*
%ADD10C,0.004*%
%ADD11C,0.005*%
%ADD12C,0.007*%
D10*
X893Y358D02*
Y382D01*
X937Y358D02*
Y382D01*
X893D02*
X937D01*
X893Y358D02*
X937D01*
X773Y508D02*
Y532D01*
X817Y508D02*
Y532D01*
X773D02*
X817D01*
X773Y508D02*
X817D01*
X793Y368D02*
X817D01*
X793Y412D02*
X817D01*
X793Y368D02*
Y412D01*
X817Y368D02*
Y412D01*
X893Y508D02*
Y532D01*
X937Y508D02*
Y532D01*
X893D02*
X937D01*
X893Y508D02*
X937D01*
X880Y356D02*
Y384D01*
X950Y356D02*
Y384D01*
X880D02*
X950D01*
X880Y356D02*
X950D01*
X903Y370D02*
X927D01*
X915Y358D02*
Y382D01*
X760Y506D02*
Y534D01*
X830Y506D02*
Y534D01*
X760D02*
X830D01*
X760Y506D02*
X830D01*
X783Y520D02*
X807D01*
X795Y508D02*
Y532D01*
X791Y355D02*
X819D01*
X791Y425D02*
X819D01*
X791Y355D02*
Y425D01*
X819Y355D02*
Y425D01*
X805Y378D02*
Y402D01*
X793Y390D02*
X817D01*
X880Y506D02*
Y534D01*
X950Y506D02*
Y534D01*
X880D02*
X950D01*
X880Y506D02*
X950D01*
X903Y520D02*
X927D01*
X915Y508D02*
Y532D01*
D11*
X111Y155D02*
X229D01*
X170Y96D02*
Y214D01*
X249Y155D02*
X268D01*
X259Y145D02*
Y165D01*
X223Y92D02*
X242D01*
X233Y83D02*
Y102D01*
X160Y66D02*
X180D01*
X170Y57D02*
Y76D01*
X98Y92D02*
X117D01*
X107Y83D02*
Y102D01*
X72Y155D02*
X91D01*
X81Y145D02*
Y165D01*
X160Y244D02*
X180D01*
X170Y234D02*
Y253D01*
X223Y218D02*
X242D01*
X233Y208D02*
Y227D01*
X98Y218D02*
X117D01*
X107Y208D02*
Y227D01*
X111Y745D02*
X229D01*
X170Y686D02*
Y804D01*
X249Y745D02*
X268D01*
X259Y735D02*
Y755D01*
X223Y682D02*
X242D01*
X233Y673D02*
Y692D01*
X160Y656D02*
X180D01*
X170Y647D02*
Y666D01*
X98Y682D02*
X117D01*
X107Y673D02*
Y692D01*
X72Y745D02*
X91D01*
X81Y735D02*
Y755D01*
X160Y834D02*
X180D01*
X170Y824D02*
Y843D01*
X223Y808D02*
X242D01*
X233Y798D02*
Y817D01*
X98Y808D02*
X117D01*
X107Y798D02*
Y817D01*
M02*
