%FSLAX23Y23*%
%MOIN*%
G70*
G01*
G75*
%ADD10R,0.024X0.020*%
%ADD11R,0.118X0.039*%
%ADD12R,0.118X0.059*%
%ADD13R,0.060X0.050*%
%ADD14R,0.020X0.024*%
%ADD15O,0.039X0.017*%
%ADD16C,0.010*%
%ADD17C,0.236*%
%ADD18C,0.039*%
%ADD19C,0.004*%
%ADD20C,0.003*%
%ADD21C,0.005*%
D16*
X1395Y250D02*
Y650D01*
X1145D02*
X1395D01*
X1140Y645D02*
X1145Y650D01*
X1140Y250D02*
Y645D01*
Y250D02*
X1395D01*
D19*
X706Y341D02*
G03*
X681Y341I-13J0D01*
G01*
X706D02*
Y454D01*
X680D02*
X706D01*
X680Y341D02*
Y454D01*
D20*
X443Y367D02*
Y425D01*
Y495D02*
Y553D01*
X517D01*
Y367D02*
Y425D01*
X443Y367D02*
X517D01*
Y495D02*
Y553D01*
D21*
X928Y562D02*
X925Y565D01*
X918D01*
X915Y562D01*
Y548D01*
X918Y545D01*
X925D01*
X928Y548D01*
X663Y455D02*
X657D01*
X660D01*
Y438D01*
X657Y435D01*
X653D01*
X650Y438D01*
X403Y550D02*
Y530D01*
X416D01*
X763Y561D02*
Y581D01*
X773D01*
X776Y578D01*
Y571D01*
X773Y568D01*
X763D01*
X770D02*
X776Y561D01*
X783D02*
X790D01*
X786D01*
Y581D01*
X783Y578D01*
X790Y445D02*
Y465D01*
X800D01*
X803Y462D01*
Y455D01*
X800Y452D01*
X790D01*
X797D02*
X803Y445D01*
X823D02*
X810D01*
X823Y458D01*
Y462D01*
X820Y465D01*
X813D01*
X810Y462D01*
X883Y411D02*
Y431D01*
X893D01*
X896Y428D01*
Y421D01*
X893Y418D01*
X883D01*
X890D02*
X896Y411D01*
X903Y428D02*
X906Y431D01*
X913D01*
X916Y428D01*
Y424D01*
X913Y421D01*
X910D01*
X913D01*
X916Y418D01*
Y414D01*
X913Y411D01*
X906D01*
X903Y414D01*
M02*
