%FSLAX23Y23*%
%MOIN*%
G70*
G01*
G75*
G04 Layer_Color=2752767*
%ADD10C,0.004*%
%ADD11C,0.005*%
%ADD12C,0.007*%
D10*
X893Y358D02*
Y382D01*
X937Y358D02*
Y382D01*
X893D02*
X937D01*
X893Y358D02*
X937D01*
X773Y508D02*
Y532D01*
X817Y508D02*
Y532D01*
X773D02*
X817D01*
X773Y508D02*
X817D01*
X793Y368D02*
X817D01*
X793Y412D02*
X817D01*
X793Y368D02*
Y412D01*
X817Y368D02*
Y412D01*
X893Y508D02*
Y532D01*
X937Y508D02*
Y532D01*
X893D02*
X937D01*
X893Y508D02*
X937D01*
X880Y356D02*
Y384D01*
X950Y356D02*
Y384D01*
X880D02*
X950D01*
X880Y356D02*
X950D01*
X903Y370D02*
X927D01*
X915Y358D02*
Y382D01*
X760Y506D02*
Y534D01*
X830Y506D02*
Y534D01*
X760D02*
X830D01*
X760Y506D02*
X830D01*
X783Y520D02*
X807D01*
X795Y508D02*
Y532D01*
X791Y355D02*
X819D01*
X791Y425D02*
X819D01*
X791Y355D02*
Y425D01*
X819Y355D02*
Y425D01*
X805Y378D02*
Y402D01*
X793Y390D02*
X817D01*
X880Y506D02*
Y534D01*
X950Y506D02*
Y534D01*
X880D02*
X950D01*
X880Y506D02*
X950D01*
X903Y520D02*
X927D01*
X915Y508D02*
Y532D01*
D11*
X150Y135D02*
Y175D01*
X190D01*
Y135D01*
X150D01*
Y725D02*
Y765D01*
X190D01*
Y725D01*
X150D01*
D12*
X279Y155D02*
G03*
X279Y155I-20J0D01*
G01*
X253Y92D02*
G03*
X253Y92I-20J0D01*
G01*
X190Y66D02*
G03*
X190Y66I-20J0D01*
G01*
X127Y92D02*
G03*
X127Y92I-20J0D01*
G01*
X101Y155D02*
G03*
X101Y155I-20J0D01*
G01*
X190Y244D02*
G03*
X190Y244I-20J0D01*
G01*
X253Y218D02*
G03*
X253Y218I-20J0D01*
G01*
X127D02*
G03*
X127Y218I-20J0D01*
G01*
X279Y745D02*
G03*
X279Y745I-20J0D01*
G01*
X253Y682D02*
G03*
X253Y682I-20J0D01*
G01*
X190Y656D02*
G03*
X190Y656I-20J0D01*
G01*
X127Y682D02*
G03*
X127Y682I-20J0D01*
G01*
X101Y745D02*
G03*
X101Y745I-20J0D01*
G01*
X190Y834D02*
G03*
X190Y834I-20J0D01*
G01*
X253Y808D02*
G03*
X253Y808I-20J0D01*
G01*
X127D02*
G03*
X127Y808I-20J0D01*
G01*
M02*
