%FSLAX23Y23*%
%MOIN*%
G70*
G01*
G75*
G04 Layer_Physical_Order=1*
G04 Layer_Color=255*
%ADD10R,0.024X0.020*%
%ADD11R,0.118X0.039*%
%ADD12R,0.118X0.059*%
%ADD13R,0.060X0.050*%
%ADD14R,0.020X0.024*%
%ADD15O,0.039X0.017*%
%ADD16C,0.010*%
%ADD17C,0.236*%
%ADD18C,0.039*%
G36*
X-75Y985D02*
X1495D01*
Y-70D01*
X1475Y-90D01*
X1470Y-85D01*
X-75D01*
X-85Y988D01*
X-80Y990D01*
X-75Y985D01*
D02*
G37*
%LPC*%
G36*
X1400Y910D02*
X0D01*
X-6Y909D01*
X-11Y906D01*
X-14Y901D01*
X-15Y895D01*
Y0D01*
X-14Y-6D01*
X-11Y-11D01*
X-6Y-14D01*
X0Y-15D01*
X1400D01*
X1406Y-14D01*
X1411Y-11D01*
X1414Y-6D01*
X1415Y0D01*
Y895D01*
X1414Y901D01*
X1411Y906D01*
X1406Y909D01*
X1400Y910D01*
D02*
G37*
%LPD*%
G36*
X1385Y655D02*
X1268D01*
Y576D01*
X1385D01*
Y324D01*
X1268D01*
Y245D01*
X1385D01*
Y15D01*
X15D01*
Y880D01*
X1385D01*
Y655D01*
D02*
G37*
%LPC*%
G36*
X520Y435D02*
X440D01*
Y365D01*
X520D01*
Y382D01*
X635D01*
X638Y380D01*
X645Y379D01*
X668D01*
X675Y380D01*
X681Y384D01*
X685Y390D01*
X686Y397D01*
X685Y405D01*
X681Y411D01*
X675Y415D01*
X668Y416D01*
X645D01*
X638Y415D01*
X635Y413D01*
X520D01*
Y435D01*
D02*
G37*
G36*
X741Y454D02*
X719D01*
X712Y452D01*
X705Y448D01*
X701Y442D01*
X700Y435D01*
X701Y428D01*
X705Y421D01*
X712Y417D01*
X719Y416D01*
X741D01*
X748Y417D01*
X752Y420D01*
X774D01*
X785Y408D01*
Y388D01*
Y385D01*
X740D01*
X734Y384D01*
X729Y381D01*
X728Y379D01*
X719D01*
X712Y377D01*
X705Y373D01*
X701Y367D01*
X700Y360D01*
X701Y353D01*
X705Y347D01*
X712Y343D01*
X719Y341D01*
X741D01*
X748Y343D01*
X755Y347D01*
X759Y353D01*
X759Y355D01*
X785D01*
Y349D01*
X825D01*
Y355D01*
X874D01*
Y350D01*
X956D01*
Y356D01*
X1071D01*
Y342D01*
X1209D01*
Y401D01*
X1071D01*
Y387D01*
X956D01*
Y390D01*
X874D01*
Y385D01*
X825D01*
Y388D01*
Y431D01*
X805D01*
X791Y446D01*
X786Y449D01*
X780Y450D01*
X752D01*
X748Y452D01*
X741Y454D01*
D02*
G37*
G36*
X170Y284D02*
X150Y282D01*
X130Y277D01*
X112Y269D01*
X94Y259D01*
X79Y246D01*
X66Y231D01*
X56Y213D01*
X48Y195D01*
X43Y175D01*
X41Y155D01*
X43Y135D01*
X48Y115D01*
X56Y97D01*
X66Y79D01*
X79Y64D01*
X94Y51D01*
X112Y41D01*
X130Y33D01*
X150Y28D01*
X170Y26D01*
X190Y28D01*
X210Y33D01*
X228Y41D01*
X246Y51D01*
X261Y64D01*
X274Y79D01*
X285Y97D01*
X292Y115D01*
X297Y135D01*
X299Y155D01*
X297Y175D01*
X292Y195D01*
X285Y213D01*
X274Y231D01*
X261Y246D01*
X246Y259D01*
X228Y269D01*
X210Y277D01*
X190Y282D01*
X170Y284D01*
D02*
G37*
G36*
X1135Y558D02*
X1071D01*
Y534D01*
X1135D01*
Y558D01*
D02*
G37*
G36*
X1209D02*
X1145D01*
Y534D01*
X1209D01*
Y558D01*
D02*
G37*
G36*
X170Y874D02*
X150Y872D01*
X130Y867D01*
X112Y859D01*
X94Y849D01*
X79Y836D01*
X66Y821D01*
X56Y803D01*
X48Y785D01*
X43Y765D01*
X41Y745D01*
X43Y725D01*
X48Y705D01*
X56Y687D01*
X66Y669D01*
X79Y654D01*
X94Y641D01*
X112Y631D01*
X130Y623D01*
X150Y618D01*
X170Y616D01*
X190Y618D01*
X210Y623D01*
X228Y631D01*
X246Y641D01*
X261Y654D01*
X274Y669D01*
X285Y687D01*
X292Y705D01*
X297Y725D01*
X299Y745D01*
X297Y765D01*
X292Y785D01*
X285Y803D01*
X274Y821D01*
X261Y836D01*
X246Y849D01*
X228Y859D01*
X210Y867D01*
X190Y872D01*
X170Y874D01*
D02*
G37*
G36*
X520Y555D02*
X440D01*
Y485D01*
X520D01*
Y505D01*
X754D01*
Y500D01*
X836D01*
Y505D01*
X874D01*
Y500D01*
X933D01*
X994Y439D01*
X999Y436D01*
X1005Y435D01*
X1071D01*
Y420D01*
X1209D01*
Y480D01*
X1071D01*
Y465D01*
X1011D01*
X956Y520D01*
Y540D01*
X874D01*
Y535D01*
X836D01*
Y540D01*
X754D01*
Y535D01*
X520D01*
Y555D01*
D02*
G37*
G36*
X1135Y524D02*
X1071D01*
Y499D01*
X1135D01*
Y524D01*
D02*
G37*
G36*
X1209D02*
X1145D01*
Y499D01*
X1209D01*
Y524D01*
D02*
G37*
%LPD*%
D10*
X895Y370D02*
D03*
X935D02*
D03*
X775Y520D02*
D03*
X815D02*
D03*
X895D02*
D03*
X935D02*
D03*
D11*
X1140Y529D02*
D03*
Y450D02*
D03*
Y371D02*
D03*
Y529D02*
D03*
D12*
X1337Y615D02*
D03*
Y285D02*
D03*
D13*
X480Y400D02*
D03*
Y520D02*
D03*
D14*
X805Y370D02*
D03*
Y410D02*
D03*
D15*
X730Y360D02*
D03*
Y435D02*
D03*
X656Y397D02*
D03*
D16*
X815Y520D02*
X895D01*
X935D02*
X1005Y450D01*
X1140D01*
X936Y371D02*
X1140D01*
X740Y370D02*
X895D01*
X780Y435D02*
X805Y410D01*
X730Y435D02*
X780D01*
X480Y520D02*
X775D01*
X480Y520D02*
X480Y520D01*
X483Y397D02*
X656D01*
D17*
X170Y155D02*
D03*
Y745D02*
D03*
D18*
X259Y155D02*
D03*
X233Y92D02*
D03*
X170Y66D02*
D03*
X107Y92D02*
D03*
X81Y155D02*
D03*
X170Y244D02*
D03*
X233Y218D02*
D03*
X107D02*
D03*
X259Y745D02*
D03*
X233Y682D02*
D03*
X170Y656D02*
D03*
X107Y682D02*
D03*
X81Y745D02*
D03*
X170Y834D02*
D03*
X233Y808D02*
D03*
X107D02*
D03*
M02*
